<mxfile host="65bd71144e">
    <diagram id="9eZvkpCpS4qNT1aZThFv" name="Page-1">
        <mxGraphModel dx="3230" dy="2448" grid="1" gridSize="10" guides="1" tooltips="1" connect="1" arrows="1" fold="1" page="1" pageScale="1" pageWidth="850" pageHeight="1100" math="0" shadow="0">
            <root>
                <mxCell id="0"/>
                <mxCell id="1" parent="0"/>
                <mxCell id="2" value="" style="whiteSpace=wrap;html=1;aspect=fixed;" vertex="1" parent="1">
                    <mxGeometry x="-380" y="60" width="320" height="320" as="geometry"/>
                </mxCell>
                <mxCell id="4" value="&lt;font style=&quot;font-size: 18px;&quot; color=&quot;#ffffff&quot;&gt;54&lt;/font&gt;" style="text;html=1;strokeColor=none;fillColor=none;align=center;verticalAlign=middle;whiteSpace=wrap;rounded=0;labelBackgroundColor=none;fontColor=#FFFF00;" vertex="1" parent="1">
                    <mxGeometry x="220" y="290" width="140" height="60" as="geometry"/>
                </mxCell>
                <mxCell id="5" value="&lt;font color=&quot;#80ff00&quot;&gt;lorium ipsum dor remi velun&lt;/font&gt;&lt;span style=&quot;color: rgb(240, 240, 240);&quot;&gt;&amp;nbsp;&lt;/span&gt;&lt;font color=&quot;#ffff00&quot;&gt;lorium&lt;/font&gt;&lt;span style=&quot;color: rgb(240, 240, 240);&quot;&gt;&amp;nbsp;ipsum dor remi velun lorium ipsum dor remi velun lorium ipsum dorlorium ipsum dor remi velunlorium ipsum dor remi velunlorium ipsum dor&amp;nbsp;&lt;/span&gt;" style="text;html=1;strokeColor=none;fillColor=none;align=center;verticalAlign=middle;whiteSpace=wrap;rounded=0;labelBackgroundColor=none;fontColor=#FFFFFF;" vertex="1" parent="1">
                    <mxGeometry x="130" y="80" width="300" height="100" as="geometry"/>
                </mxCell>
                <mxCell id="6" value="" style="rounded=0;whiteSpace=wrap;html=1;labelBackgroundColor=none;fontSize=18;fontColor=#FFFFFF;" vertex="1" parent="1">
                    <mxGeometry x="-30" y="560" width="200" height="40" as="geometry"/>
                </mxCell>
                <mxCell id="7" value="Leaderboard" style="rounded=0;whiteSpace=wrap;html=1;labelBackgroundColor=none;fontSize=18;fontColor=#FFFFFF;" vertex="1" parent="1">
                    <mxGeometry x="-30" y="600" width="200" height="40" as="geometry"/>
                </mxCell>
                <mxCell id="8" value="" style="rounded=0;whiteSpace=wrap;html=1;labelBackgroundColor=none;fontSize=18;fontColor=#FFFFFF;" vertex="1" parent="1">
                    <mxGeometry x="-30" y="641" width="200" height="40" as="geometry"/>
                </mxCell>
                <mxCell id="9" value="&lt;h1&gt;Client&lt;/h1&gt;&lt;div&gt;created with HTMX&lt;/div&gt;" style="text;html=1;strokeColor=none;fillColor=none;spacing=5;spacingTop=-20;whiteSpace=wrap;overflow=hidden;rounded=0;labelBackgroundColor=none;fontSize=18;fontColor=#FFFFFF;" vertex="1" parent="1">
                    <mxGeometry x="-320" y="180" width="190" height="120" as="geometry"/>
                </mxCell>
                <mxCell id="10" value="1000 most popular words.txt" style="shape=note;whiteSpace=wrap;html=1;backgroundOutline=1;darkOpacity=0.05;labelBackgroundColor=none;fontSize=18;fontColor=#FFFFFF;" vertex="1" parent="1">
                    <mxGeometry x="1570" y="120" width="120" height="140" as="geometry"/>
                </mxCell>
                <mxCell id="11" value="TypingTest struct" style="whiteSpace=wrap;html=1;aspect=fixed;labelBackgroundColor=none;fontSize=18;fontColor=#FFFFFF;" vertex="1" parent="1">
                    <mxGeometry x="950" y="271" width="250" height="250" as="geometry"/>
                </mxCell>
                <mxCell id="12" value="" style="endArrow=classic;html=1;fontSize=18;fontColor=#FFFFFF;exitX=0;exitY=0.5;exitDx=0;exitDy=0;exitPerimeter=0;entryX=1;entryY=0.5;entryDx=0;entryDy=0;" edge="1" parent="1" source="10" target="28">
                    <mxGeometry width="50" height="50" relative="1" as="geometry">
                        <mxPoint x="1360" y="340" as="sourcePoint"/>
                        <mxPoint x="1440" y="230" as="targetPoint"/>
                    </mxGeometry>
                </mxCell>
                <mxCell id="17" value="give_test" style="rhombus;whiteSpace=wrap;html=1;labelBackgroundColor=none;fontSize=18;fontColor=#FFFFFF;" vertex="1" parent="1">
                    <mxGeometry x="1490" y="360" width="120" height="109" as="geometry"/>
                </mxCell>
                <mxCell id="18" value="randomize&lt;br&gt;words" style="rhombus;whiteSpace=wrap;html=1;labelBackgroundColor=none;fontSize=18;fontColor=#FFFFFF;" vertex="1" parent="1">
                    <mxGeometry x="1390" y="510" width="125" height="140" as="geometry"/>
                </mxCell>
                <mxCell id="21" value="" style="endArrow=none;dashed=1;html=1;dashPattern=1 3;strokeWidth=2;fontSize=18;fontColor=#FFFFFF;entryX=0;entryY=0.5;entryDx=0;entryDy=0;exitX=1.001;exitY=0.132;exitDx=0;exitDy=0;exitPerimeter=0;" edge="1" parent="1" source="2" target="5">
                    <mxGeometry width="50" height="50" relative="1" as="geometry">
                        <mxPoint x="80" y="240" as="sourcePoint"/>
                        <mxPoint x="130" y="190" as="targetPoint"/>
                    </mxGeometry>
                </mxCell>
                <mxCell id="22" value="" style="endArrow=none;dashed=1;html=1;dashPattern=1 3;strokeWidth=2;fontSize=18;fontColor=#FFFFFF;entryX=0;entryY=0.5;entryDx=0;entryDy=0;exitX=1.014;exitY=0.645;exitDx=0;exitDy=0;exitPerimeter=0;" edge="1" parent="1" source="2" target="4">
                    <mxGeometry width="50" height="50" relative="1" as="geometry">
                        <mxPoint x="80" y="320" as="sourcePoint"/>
                        <mxPoint x="130" y="270" as="targetPoint"/>
                    </mxGeometry>
                </mxCell>
                <mxCell id="23" value="" style="endArrow=none;dashed=1;html=1;dashPattern=1 3;strokeWidth=2;fontSize=18;fontColor=#FFFFFF;entryX=0;entryY=0.5;entryDx=0;entryDy=0;exitX=0.926;exitY=1.001;exitDx=0;exitDy=0;exitPerimeter=0;" edge="1" parent="1" source="2" target="7">
                    <mxGeometry width="50" height="50" relative="1" as="geometry">
                        <mxPoint x="90" y="430" as="sourcePoint"/>
                        <mxPoint x="140" y="380" as="targetPoint"/>
                    </mxGeometry>
                </mxCell>
                <mxCell id="24" value="" style="whiteSpace=wrap;html=1;aspect=fixed;labelBackgroundColor=none;fontSize=18;fontColor=#FFFFFF;" vertex="1" parent="1">
                    <mxGeometry x="410" y="630" width="410" height="410" as="geometry"/>
                </mxCell>
                <mxCell id="25" value="&lt;h1&gt;Controller&lt;/h1&gt;" style="text;html=1;strokeColor=none;fillColor=none;spacing=5;spacingTop=-20;whiteSpace=wrap;overflow=hidden;rounded=0;labelBackgroundColor=none;fontSize=18;fontColor=#FFFFFF;" vertex="1" parent="1">
                    <mxGeometry x="520" y="740" width="190" height="120" as="geometry"/>
                </mxCell>
                <mxCell id="26" value="" style="endArrow=classic;html=1;fontSize=18;fontColor=#FFFFFF;entryX=0.5;entryY=0;entryDx=0;entryDy=0;" edge="1" parent="1" target="17">
                    <mxGeometry width="50" height="50" relative="1" as="geometry">
                        <mxPoint x="1200" y="440" as="sourcePoint"/>
                        <mxPoint x="1250" y="390" as="targetPoint"/>
                    </mxGeometry>
                </mxCell>
                <mxCell id="27" value="" style="endArrow=classic;html=1;fontSize=18;fontColor=#FFFFFF;exitX=1.003;exitY=0.845;exitDx=0;exitDy=0;exitPerimeter=0;" edge="1" parent="1" source="11" target="18">
                    <mxGeometry width="50" height="50" relative="1" as="geometry">
                        <mxPoint x="1230" y="480" as="sourcePoint"/>
                        <mxPoint x="1280" y="430" as="targetPoint"/>
                    </mxGeometry>
                </mxCell>
                <mxCell id="28" value="store_words" style="rhombus;whiteSpace=wrap;html=1;labelBackgroundColor=none;fontSize=18;fontColor=#FFFFFF;" vertex="1" parent="1">
                    <mxGeometry x="1320" y="191" width="120" height="119" as="geometry"/>
                </mxCell>
                <mxCell id="29" value="" style="endArrow=classic;html=1;fontSize=18;fontColor=#FFFFFF;entryX=0;entryY=1;entryDx=0;entryDy=0;" edge="1" parent="1" target="28">
                    <mxGeometry width="50" height="50" relative="1" as="geometry">
                        <mxPoint x="1200" y="300" as="sourcePoint"/>
                        <mxPoint x="1250" y="250" as="targetPoint"/>
                    </mxGeometry>
                </mxCell>
                <mxCell id="30" value="" style="endArrow=classic;html=1;fontSize=18;fontColor=#FFFFFF;exitX=0.823;exitY=1.007;exitDx=0;exitDy=0;exitPerimeter=0;" edge="1" parent="1" source="11" target="31">
                    <mxGeometry width="50" height="50" relative="1" as="geometry">
                        <mxPoint x="1190" y="600" as="sourcePoint"/>
                        <mxPoint x="1260" y="570" as="targetPoint"/>
                    </mxGeometry>
                </mxCell>
                <mxCell id="31" value="grade_test" style="rhombus;whiteSpace=wrap;html=1;labelBackgroundColor=none;fontSize=18;fontColor=#FFFFFF;" vertex="1" parent="1">
                    <mxGeometry x="1270" y="601" width="110" height="119" as="geometry"/>
                </mxCell>
                <mxCell id="33" value="" style="endArrow=classic;html=1;fontSize=18;fontColor=#FFFFFF;entryX=0.062;entryY=1.011;entryDx=0;entryDy=0;entryPerimeter=0;" edge="1" parent="1" target="11">
                    <mxGeometry width="50" height="50" relative="1" as="geometry">
                        <mxPoint x="820" y="660" as="sourcePoint"/>
                        <mxPoint x="870" y="610" as="targetPoint"/>
                    </mxGeometry>
                </mxCell>
                <mxCell id="34" value="" style="endArrow=classic;html=1;fontSize=18;fontColor=#FFFFFF;exitX=0;exitY=0.5;exitDx=0;exitDy=0;entryX=1;entryY=0.5;entryDx=0;entryDy=0;entryPerimeter=0;" edge="1" parent="1" source="24" target="38">
                    <mxGeometry width="50" height="50" relative="1" as="geometry">
                        <mxPoint x="340" y="850" as="sourcePoint"/>
                        <mxPoint x="220" y="870" as="targetPoint"/>
                    </mxGeometry>
                </mxCell>
                <mxCell id="35" value="update leaderboard" style="edgeLabel;html=1;align=center;verticalAlign=middle;resizable=0;points=[];fontSize=18;fontColor=#FFFFFF;" vertex="1" connectable="0" parent="34">
                    <mxGeometry x="0.2825" y="-1" relative="1" as="geometry">
                        <mxPoint y="1" as="offset"/>
                    </mxGeometry>
                </mxCell>
                <mxCell id="36" value="" style="endArrow=classic;html=1;fontSize=18;fontColor=#FFFFFF;" edge="1" parent="1" target="2">
                    <mxGeometry width="50" height="50" relative="1" as="geometry">
                        <mxPoint x="410" y="660" as="sourcePoint"/>
                        <mxPoint x="460" y="610" as="targetPoint"/>
                    </mxGeometry>
                </mxCell>
                <mxCell id="37" value="prompt test" style="edgeLabel;html=1;align=center;verticalAlign=middle;resizable=0;points=[];fontSize=18;fontColor=#FFFFFF;" vertex="1" connectable="0" parent="36">
                    <mxGeometry x="-0.1624" y="4" relative="1" as="geometry">
                        <mxPoint as="offset"/>
                    </mxGeometry>
                </mxCell>
                <mxCell id="38" value="Leaderboard" style="shape=cylinder3;whiteSpace=wrap;html=1;boundedLbl=1;backgroundOutline=1;size=15;labelBackgroundColor=none;fontSize=18;fontColor=#FFFFFF;" vertex="1" parent="1">
                    <mxGeometry x="10" y="830" width="140" height="150" as="geometry"/>
                </mxCell>
                <mxCell id="39" value="" style="endArrow=classic;html=1;fontSize=18;fontColor=#FFFFFF;entryX=0.603;entryY=0.969;entryDx=0;entryDy=0;entryPerimeter=0;exitX=0.5;exitY=0;exitDx=0;exitDy=0;exitPerimeter=0;" edge="1" parent="1" source="38" target="8">
                    <mxGeometry width="50" height="50" relative="1" as="geometry">
                        <mxPoint x="120" y="800" as="sourcePoint"/>
                        <mxPoint x="170" y="750" as="targetPoint"/>
                    </mxGeometry>
                </mxCell>
                <mxCell id="40" value="JavaScript&lt;br&gt;&lt;br&gt;typing test logic" style="whiteSpace=wrap;html=1;aspect=fixed;labelBackgroundColor=none;fontSize=18;fontColor=#FFFFFF;" vertex="1" parent="1">
                    <mxGeometry x="250" y="-200" width="150" height="150" as="geometry"/>
                </mxCell>
                <mxCell id="41" value="" style="endArrow=classic;html=1;fontSize=18;fontColor=#FFFFFF;entryX=0.425;entryY=0.005;entryDx=0;entryDy=0;entryPerimeter=0;" edge="1" parent="1" target="5">
                    <mxGeometry width="50" height="50" relative="1" as="geometry">
                        <mxPoint x="280" y="-50" as="sourcePoint"/>
                        <mxPoint x="330" y="-100" as="targetPoint"/>
                    </mxGeometry>
                </mxCell>
                <mxCell id="42" value="" style="endArrow=classic;html=1;fontSize=18;fontColor=#FFFFFF;exitX=0.75;exitY=1;exitDx=0;exitDy=0;entryX=0.75;entryY=0;entryDx=0;entryDy=0;" edge="1" parent="1" source="40" target="4">
                    <mxGeometry width="50" height="50" relative="1" as="geometry">
                        <mxPoint x="480" as="sourcePoint"/>
                        <mxPoint x="530" y="-50" as="targetPoint"/>
                    </mxGeometry>
                </mxCell>
            </root>
        </mxGraphModel>
    </diagram>
</mxfile>